<?xml version="1.0" encoding="UTF-8"?>
<svg width="136px" height="81px" viewBox="0 0 136 81" version="1.1" xmlns="http://www.w3.org/2000/svg" xmlns:xlink="http://www.w3.org/1999/xlink">
    <!-- Generator: Sketch 49.3 (51167) - http://www.bohemiancoding.com/sketch -->
    <title>32</title>
    <desc>Created with Sketch.</desc>
    <defs></defs>
    <g id="Page-1" stroke="none" stroke-width="1" fill="none" fill-rule="evenodd">
        <g id="Artboard" transform="translate(-265.000000, -202.000000)" fill="#FFFFFF" stroke="#000000" stroke-width="8">
            <g id="32" transform="translate(269.000000, 206.000000)">
                <path d="M100,14.5777778 C98.672,14.5777778 97.3595,14.6631944 96.052,14.8340278 C88.5835,5.56165 76.797,0 64,0 C51.203,0 39.422,5.56165 31.948,14.8340278 C30.6405,14.6631944 29.328,14.5777778 28,14.5777778 C12.5625,14.5777778 0,26.0236111 0,40.0888889 C0,54.1541667 12.5625,65.6 28,65.6 C31.422,65.6 34.771,65.0305556 37.92725,63.9297056 C45.1665,69.6810944 54.375,72.8888889 64,72.8888889 C73.6355,72.8888889 82.83325,69.6810944 90.07275,63.9297056 C93.229,65.0305556 96.578,65.6 100,65.6 C115.4375,65.6 128,54.1541667 128,40.0888889 C128,26.0236111 115.4375,14.5777778 100,14.5777778 Z" id="Shape"></path>
            </g>
        </g>
    </g>
</svg>