<?xml version="1.0" encoding="UTF-8"?>
<svg width="128px" height="116px" viewBox="0 0 128 116" version="1.1" xmlns="http://www.w3.org/2000/svg" xmlns:xlink="http://www.w3.org/1999/xlink">
    <!-- Generator: Sketch 49.3 (51167) - http://www.bohemiancoding.com/sketch -->
    <title>2</title>
    <desc>Created with Sketch.</desc>
    <defs></defs>
    <g id="icon-sun" stroke="none" stroke-width="1" fill="none" fill-rule="evenodd">
        <g id="Artboard" transform="translate(-397.000000, -126.000000)" fill="#1D1D1B">
            <g id="2" transform="translate(397.000000, 126.000000)">
                <path d="M64,26.7692308 C45,26.7692308 29.5384615,40.78125 29.5384615,58 C29.5384615,75.21875 45,89.2307692 64,89.2307692 C83,89.2307692 98.4615385,75.21875 98.4615385,58 C98.4615385,40.78125 83,26.7692308 64,26.7692308 Z M64,80.3076923 C50.4036923,80.3076923 39.3846154,70.3216538 39.3846154,58 C39.3846154,45.6783462 50.4036923,35.6923077 64,35.6923077 C77.5963077,35.6923077 88.6153846,45.6783462 88.6153846,58 C88.6153846,70.3216538 77.5963077,80.3076923 64,80.3076923 Z M64,17.8461538 C66.7178462,17.8461538 68.9230769,15.8476635 68.9230769,13.3846154 L68.9230769,4.46153846 C68.9230769,1.99849038 66.7178462,0 64,0 C61.2821538,0 59.0769231,1.99849038 59.0769231,4.46153846 L59.0769231,13.3846154 C59.0769231,15.8476635 61.2821538,17.8461538 64,17.8461538 Z M64,98.1538462 C61.2821538,98.1538462 59.0769231,100.152337 59.0769231,102.615385 L59.0769231,111.538462 C59.0769231,114.00151 61.2821538,116 64,116 C66.7178462,116 68.9230769,114.00151 68.9230769,111.538462 L68.9230769,102.615385 C68.9230769,100.152337 66.7178462,98.1538462 64,98.1538462 Z M102.288615,29.6042596 L109.250154,23.2953654 C111.173231,21.5525769 111.173231,18.7292596 109.250154,16.9864712 C107.327077,15.2436827 104.211692,15.2436827 102.288615,16.9864712 L95.3270769,23.2953654 C93.404,25.0381538 93.404,27.8614712 95.3270769,29.6042596 C97.2498462,31.3470481 100.365538,31.3470481 102.288615,29.6042596 Z M25.7113846,86.3960192 L18.7498462,92.7049135 C16.8267692,94.4474231 16.8267692,97.2707404 18.7498462,99.0135288 C20.6729231,100.756317 23.7883077,100.756317 25.7113846,99.0135288 L32.6729231,92.7049135 C34.596,90.9562692 34.596,88.1385288 32.6729231,86.3960192 C30.7501538,84.6529519 27.6344615,84.6470962 25.7113846,86.3960192 Z M19.6923077,58 C19.6923077,55.5369519 17.4870769,53.5384615 14.7692308,53.5384615 L4.92307692,53.5384615 C2.20523077,53.5384615 0,55.5369519 0,58 C0,60.4630481 2.20523077,62.4615385 4.92307692,62.4615385 L14.7692308,62.4615385 C17.4870769,62.4615385 19.6923077,60.4630481 19.6923077,58 Z M123.076923,53.5384615 L113.230769,53.5384615 C110.512923,53.5384615 108.307692,55.5369519 108.307692,58 C108.307692,60.4630481 110.512923,62.4615385 113.230769,62.4615385 L123.076923,62.4615385 C125.794769,62.4615385 128,60.4630481 128,58 C128,55.5369519 125.794769,53.5384615 123.076923,53.5384615 Z M25.7049231,29.6042596 C27.6283077,31.3470481 30.7436923,31.3470481 32.6664615,29.6042596 C34.5898462,27.8614712 34.5898462,25.0381538 32.6664615,23.2953654 L25.7049231,16.9864712 C23.7818462,15.2436827 20.6667692,15.2436827 18.7433846,16.9864712 C16.8203077,18.7292596 16.8203077,21.5525769 18.7433846,23.2953654 L25.7049231,29.6042596 Z M102.295077,86.3898846 C100.365538,84.6470962 97.2563077,84.6470962 95.3335385,86.3898846 C93.4101538,88.1326731 93.404,90.9559904 95.3335385,92.6987788 L102.295077,99.0076731 C104.217846,100.750462 107.333231,100.750462 109.256308,99.0076731 C111.179385,97.2648846 111.179385,94.4418462 109.256308,92.6987788 L102.295077,86.3898846 Z" id="Shape"></path>
            </g>
        </g>
    </g>
</svg>